<svg width="40" height="40" viewBox="0 0 40 40" fill="none" xmlns="http://www.w3.org/2000/svg">
<g clip-path="url(#clip0_2_16)">
<path d="M30.011 0C30.011 0 26.72 3.19294 23.1607 4.48023C-3.19685 14.0139 7.91925 32.5923 8.2819 32.6535C8.2819 32.6535 9.75991 30.0796 11.7565 28.6116C24.4258 19.2977 27.0008 8.57707 27.0008 8.57707C27.0008 8.57707 24.1578 21.4775 12.8865 29.5044C10.3971 31.2764 8.7115 35.6393 7.99796 40C7.99796 40 9.76259 39.287 10.5214 39.0939C10.8173 37.163 11.436 35.314 12.4819 33.6622C28.2349 35.5378 33.3942 22.8443 34.0682 18.4181C35.6591 7.96458 30.011 0 30.011 0Z" fill="black"/>
</g>
<defs>
<clipPath id="clip0_2_16">
<rect width="40" height="40" fill="white"/>
</clipPath>
</defs>
</svg>
