<svg width="40" height="40" viewBox="0 0 40 40" fill="none" xmlns="http://www.w3.org/2000/svg">
<path d="M12.0667 27.9333C12.9828 28.868 13.4959 30.1246 13.4959 31.4333C13.4959 32.7421 12.9828 33.9987 12.0667 34.9333C9.53333 37.4833 4.15 38.2667 3.55 38.2667H3.33333C3.09497 38.2687 2.85896 38.2196 2.6412 38.1226C2.42345 38.0256 2.22903 37.8831 2.07106 37.7046C1.91309 37.5261 1.79525 37.3158 1.72549 37.0878C1.65573 36.8599 1.63567 36.6197 1.66666 36.3833C1.75 35.7833 2.5 30.4 5 27.8667C5.9463 26.9391 7.2221 26.4251 8.54713 26.4376C9.87215 26.4501 11.138 26.9881 12.0667 27.9333ZM32.3 21.85C29.2841 24.8092 25.9272 27.3996 22.3 29.5667C21.5713 29.9724 20.7507 30.1847 19.9167 30.1833C19.2547 30.1871 18.5985 30.0595 17.9862 29.8077C17.374 29.5559 16.8178 29.1851 16.35 28.7167L11.35 23.7167C10.5824 22.9511 10.0845 21.9568 9.93118 20.8836C9.77787 19.8104 9.9775 18.7165 10.5 17.7667C12.667 14.1394 15.2574 10.7825 18.2167 7.76665C20.5385 5.30905 23.4633 3.5021 26.7001 2.5255C29.9369 1.5489 33.373 1.43667 36.6667 2.19999C36.9306 2.27928 37.1708 2.42279 37.3657 2.61767C37.5605 2.81254 37.704 3.05271 37.7833 3.31665C38.5724 6.61549 38.4812 10.0637 37.5189 13.3162C36.5566 16.5688 34.7569 19.5115 32.3 21.85ZM30.6333 9.31665C30.1679 8.84849 29.574 8.52905 28.9269 8.39883C28.2798 8.2686 27.6085 8.33345 26.9983 8.58516C26.388 8.83687 25.8663 9.2641 25.4991 9.81269C25.132 10.3613 24.936 11.0065 24.936 11.6667C24.936 12.3268 25.132 12.972 25.4991 13.5206C25.8663 14.0692 26.388 14.4964 26.9983 14.7481C27.6085 14.9999 28.2798 15.0647 28.9269 14.9345C29.574 14.8043 30.1679 14.4848 30.6333 14.0167C31.2609 13.3987 31.6183 12.5576 31.6277 11.677C31.6371 10.7963 31.2976 9.94778 30.6833 9.31665H30.6333ZM32.5833 23.8333C29.8845 26.3595 26.9488 28.6199 23.8167 30.5833L27.15 33.9167C27.3057 34.0711 27.4904 34.1933 27.6935 34.2763C27.8965 34.3592 28.114 34.4013 28.3333 34.4C28.7706 34.3981 29.1896 34.2246 29.5 33.9167L30.6333 32.7833C31.4167 32.0068 32.0381 31.0825 32.4615 30.064C32.885 29.0454 33.102 27.953 33.1 26.85C33.1249 25.8247 32.9668 24.8032 32.6333 23.8333H32.5833ZM7.16666 9.26665L6.03333 10.4C5.72291 10.7123 5.54868 11.1347 5.54868 11.575C5.54868 12.0153 5.72291 12.4377 6.03333 12.75L9.36666 16.0833C11.2968 12.9552 13.5297 10.0245 16.0333 7.33332C14.5266 6.76429 12.8873 6.64406 11.3137 6.98717C9.74015 7.33029 8.2997 8.12204 7.16666 9.26665Z" fill="black"/>
</svg>
