<svg width="40" height="40" viewBox="0 0 40 40" fill="none" xmlns="http://www.w3.org/2000/svg">
<g clip-path="url(#clip0_1_4)">
<path d="M39.8954 15.3429C39.7672 14.9472 39.5255 14.5979 39.2005 14.3383C38.8754 14.0788 38.4813 13.9204 38.0671 13.8829L26.5202 12.8346L21.9569 2.1508C21.6199 1.36587 20.8533 0.859375 20 0.859375C19.1467 0.859375 18.3799 1.36587 18.0451 2.1508L13.4817 12.8346L1.93308 13.8829C1.08642 13.961 0.369537 14.5345 0.104689 15.3429C-0.0243655 15.739 -0.0344041 16.1642 0.0758162 16.5658C0.186036 16.9675 0.411673 17.3281 0.724778 17.6028L9.45329 25.2564L6.87973 36.5915C6.69144 37.4249 7.01489 38.2868 7.70646 38.7867C8.06868 39.0502 8.50518 39.192 8.95313 39.1917C9.33709 39.1917 9.71386 39.0875 10.0432 38.8901L20 32.9367L29.9551 38.8901C30.3122 39.1038 30.7242 39.2079 31.1399 39.1895C31.5556 39.1711 31.9568 39.031 32.2937 38.7867C32.9852 38.2868 33.3087 37.4249 33.1204 36.5915L30.5468 25.2564L39.2753 17.6029C39.5884 17.3282 39.8141 16.9676 39.9243 16.5659C40.0345 16.1642 40.0245 15.739 39.8954 15.343V15.3429Z" fill="black"/>
</g>
<defs>
<clipPath id="clip0_1_4">
<rect width="40" height="40" fill="white"/>
</clipPath>
</defs>
</svg>
