<svg width="40" height="40" viewBox="0 0 40 40" fill="none" xmlns="http://www.w3.org/2000/svg">
<g clip-path="url(#clip0_1_7)">
<path d="M39.9649 15.4496C39.9235 15.3225 39.8474 15.2095 39.7452 15.1233C39.6429 15.0372 39.5187 14.9813 39.3864 14.962L26.4342 13.0797L20.6419 1.34322C20.583 1.22325 20.4917 1.12219 20.3783 1.05151C20.2649 0.980827 20.134 0.943359 20.0004 0.943359C19.8667 0.943359 19.7358 0.980827 19.6224 1.05151C19.509 1.12219 19.4177 1.22325 19.3588 1.34322L13.5658 13.0804L0.613598 14.9627C0.481743 14.9824 0.357982 15.0384 0.256202 15.1245C0.154422 15.2107 0.0786492 15.3234 0.0373836 15.4502C-0.00388202 15.577 -0.00900737 15.7127 0.0225825 15.8422C0.0541724 15.9718 0.121228 16.0899 0.216226 16.1835L9.5892 25.3194L7.37609 38.2201C7.33027 38.4886 7.44053 38.7599 7.66034 38.9203C7.76814 38.9994 7.89609 39.0465 8.02946 39.0562C8.16284 39.0658 8.29622 39.0376 8.41427 38.9747L20.0004 32.8846L31.585 38.9747C31.7033 39.0369 31.8365 39.0647 31.9698 39.0551C32.103 39.0455 32.2309 38.9988 32.339 38.9203C32.4471 38.8418 32.531 38.7346 32.5814 38.6108C32.6317 38.4871 32.6465 38.3518 32.6239 38.2201L30.4115 25.3202L39.7845 16.1835C39.9792 15.9923 40.0494 15.708 39.9649 15.4496Z" fill="black"/>
</g>
<defs>
<clipPath id="clip0_1_7">
<rect width="40" height="40" fill="white"/>
</clipPath>
</defs>
</svg>
