<svg width="40" height="40" viewBox="0 0 40 40" fill="none" xmlns="http://www.w3.org/2000/svg">
<path d="M20.0016 1.74323C18.6908 1.74323 17.3748 2.39682 16.7292 3.70522L13.0732 11.1124C12.9952 11.2734 12.879 11.4128 12.7346 11.5183C12.5903 11.6239 12.4222 11.6925 12.2452 11.718L4.0688 12.9108C1.18 13.3308 -0.0420007 17.084 2.048 19.122L7.9592 24.8912C8.2216 25.1472 8.3484 25.5128 8.2872 25.874L6.884 34.026C6.3904 36.902 9.5912 39.2164 12.1744 37.8576L19.4856 34.0136C19.6441 33.9298 19.8207 33.8859 20 33.8859C20.1793 33.8859 20.3559 33.9298 20.5144 34.0136L27.8256 37.8576C30.4088 39.2164 33.6096 36.9024 33.116 34.0256L31.7132 25.8736C31.682 25.6966 31.6945 25.5146 31.7494 25.3435C31.8043 25.1723 31.9001 25.0171 32.0284 24.8912L37.9524 19.122C40.042 17.084 38.8196 13.3308 35.9312 12.9108L27.7548 11.718C27.5778 11.6925 27.4097 11.624 27.2654 11.5184C27.121 11.4128 27.0047 11.2734 26.9268 11.1124L23.2708 3.70522C22.6256 2.39682 21.3124 1.74323 20.0016 1.74323Z" fill="black"/>
</svg>
