<svg width="40" height="40" viewBox="0 0 40 40" fill="none" xmlns="http://www.w3.org/2000/svg">
<g clip-path="url(#clip0_1_13)">
<path d="M20 0C8.95111 0 0 8.95111 0 20C0 31.0488 8.95111 39.9999 20 39.9999C31.0488 39.9999 39.9999 31.0488 39.9999 20C39.9999 8.95111 31.0488 0 20 0ZM32.5511 17.7333L26.32 23.6089L28.2222 30.4267C28.6045 31.8044 27.9289 32.3289 26.6933 31.5912L20 27.5555L13.2978 31.5822C12.0711 32.3199 11.3511 31.7955 11.6978 30.4L13.5378 22.9867L7.50219 17.6622C6.42666 16.7111 6.71995 15.9467 8.15109 15.9467H15.4844L18.9688 7.84003C19.5377 6.52445 20.4444 6.52444 20.9955 7.84888L24.3999 15.9467H31.831C33.2711 15.9556 33.5911 16.7555 32.5511 17.7333Z" fill="black"/>
</g>
<defs>
<clipPath id="clip0_1_13">
<rect width="40" height="40" fill="white"/>
</clipPath>
</defs>
</svg>
